<svg width="32" height="32" viewBox="0 0 32 32" fill="none" xmlns="http://www.w3.org/2000/svg">
<g id="Add">
<g id="Group">
<g id="Group_2">
<path id="Vector" d="M18.5527 3C11.1378 3 5 9.03229 5 16.4473C5 23.8622 11.1378 30 18.5527 30C25.9677 30 32 23.8622 32 16.4473C32 9.03229 25.9677 3 18.5527 3ZM25.6719 18.0293H20.1348V23.6719C20.1348 24.5441 19.4244 25.2539 18.5527 25.2539C17.6805 25.2539 16.9707 24.5441 16.9707 23.6719V18.0293H11.3281C10.4559 18.0293 9.74609 17.3195 9.74609 16.4473C9.74609 15.575 10.4559 14.8652 11.3281 14.8652H16.9707V9.32812C16.9707 8.4559 17.6805 7.74609 18.5527 7.74609C19.4244 7.74609 20.1348 8.4559 20.1348 9.32812V14.8652H25.6719C26.5436 14.8652 27.2539 15.575 27.2539 16.4473C27.2539 17.3195 26.5436 18.0293 25.6719 18.0293Z" fill="white"/>
</g>
</g>
</g>
</svg>
