<svg width="37" height="41" viewBox="0 0 37 41" fill="none" xmlns="http://www.w3.org/2000/svg">
<g id="Group 6858">
<path id="Vector" d="M33.2945 5.68555V30.75L10.2344 37.877V5.125H19.1999L21.7648 5.92578L24.3297 5.125H32.7339C33.0438 5.125 33.2945 5.37564 33.2945 5.68555Z" fill="#EDBA94"/>
<path id="Vector_2" d="M17.3866 6.40625C17.3866 5.9703 17.3517 5.54237 17.2848 5.125H10.2349V14.412C14.2529 13.9611 17.3866 10.5428 17.3866 6.40625Z" fill="#E5A87F"/>
<path id="Vector_3" d="M10.2349 5.125H11.8848V30.75H10.2349V5.125Z" fill="#E5A87F"/>
<path id="Vector_4" d="M23.5355 11.6007L21.9985 10.8956C21.8501 10.8275 21.6794 10.8275 21.531 10.8956L19.994 11.6007C19.6227 11.771 19.1997 11.4997 19.1997 11.0912V5.125H24.3298V11.0912C24.3298 11.4997 23.9069 11.771 23.5355 11.6007Z" fill="#FD6930"/>
<path id="Vector_5" d="M18.5919 19.113L16.6741 17.1952C16.4552 16.9763 16.1003 16.9763 15.8815 17.1952L13.9637 19.113C13.6105 19.4661 13.8606 20.0699 14.36 20.0699H14.436C14.7456 20.0699 14.9966 20.3209 14.9966 20.6305V25.0645C14.9966 25.3741 15.2476 25.625 15.5571 25.625H16.9985C17.3081 25.625 17.5591 25.3741 17.5591 25.0645V20.6305C17.5591 20.3209 17.8101 20.0699 18.1196 20.0699H18.1956C18.695 20.0699 18.9451 19.4661 18.5919 19.113Z" fill="#F1F6F7"/>
<path id="Vector_6" d="M30.1895 25.6534H26.1855C25.876 25.6534 25.625 25.4024 25.625 25.0928V23.5947C25.625 23.2851 25.876 23.0341 26.1855 23.0341H30.1895C30.499 23.0341 30.75 23.2851 30.75 23.5947V25.0928C30.75 25.4024 30.499 25.6534 30.1895 25.6534Z" fill="#E5A87F"/>
<g id="Group">
<g id="Group_2">
<path id="Vector_7" d="M30.7501 21.1187H25.625C25.2833 21.1187 25.0063 20.8417 25.0063 20.5C25.0063 20.1583 25.2833 19.8813 25.625 19.8813H30.7501C31.0919 19.8813 31.3688 20.1583 31.3688 20.5C31.3689 20.8417 31.0919 21.1187 30.7501 21.1187Z" fill="#E5A87F"/>
</g>
</g>
<path id="Vector_8" d="M26.206 29.7586C25.7127 28.9058 24.791 28.33 23.7371 28.33H20.0696L18.3135 27.651C17.2877 27.2546 16.2098 27.0536 15.1095 27.0536C13.1292 27.0536 11.5044 27.4212 10.2344 27.892V37.877L33.2945 30.75V25.665L26.206 29.7586Z" fill="#E5A87F"/>
<path id="Vector_9" d="M7.6875 30.75C7.6875 30.75 10.1451 28.2549 15.1097 28.2549C16.0572 28.2549 16.9966 28.4301 17.8804 28.7718L19.8458 29.5314H23.737C24.6468 29.5314 25.3842 30.2689 25.3842 31.1786C25.3842 31.1786 25.3591 31.5086 25.3124 31.6612L25.3128 31.6614L28.4393 29.8563L34.1448 26.5614C34.9326 26.1069 35.9399 26.3775 36.3944 27.1653C36.8284 27.9141 36.5421 28.9826 35.7922 29.4149L25.363 37.5663C24.6412 38.1314 23.751 38.4375 22.8353 38.4375H7.6875L6.88672 37.1162V32.2434L7.6875 30.75Z" fill="#FFCEBF"/>
<path id="Vector_10" d="M15.8045 28.2864C15.5738 28.2655 15.342 28.2549 15.1097 28.2549C10.1451 28.2549 7.6875 30.75 7.6875 30.75L6.88672 32.2434V37.1963L7.6875 38.4375H9.33743V30.9987C9.33743 30.8347 9.4087 30.6787 9.53386 30.5725C10.1527 30.0476 12.2354 28.5246 15.8045 28.2864Z" fill="#FFB09E"/>
<path id="Vector_11" d="M24.7319 31.4801C24.5989 31.9149 24.2034 32.207 23.7481 32.207H16.2774C15.9356 32.207 15.6587 32.484 15.6587 32.8257C15.6587 33.1674 15.9357 33.4444 16.2774 33.4444H23.7481C24.1376 33.4444 24.5066 33.3462 24.8302 33.1713C24.8301 33.1716 34.4781 27.3681 35.8039 26.5706C35.3093 26.2792 34.6769 26.2541 34.1443 26.5614L28.4389 29.8563L25.3123 31.6614L25.3119 31.6612C25.3586 31.5086 25.3838 31.1786 25.3838 31.1786C25.3838 31.1335 25.3806 31.0892 25.3771 31.045C25.0924 31.02 24.8189 31.1957 24.7319 31.4801Z" fill="#FFB09E"/>
<path id="Vector_12" d="M9.33057 12.8125C12.8686 12.8125 15.7368 9.94432 15.7368 6.40625C15.7368 2.86818 12.8686 0 9.33057 0C5.79249 0 2.92432 2.86818 2.92432 6.40625C2.92432 9.94432 5.79249 12.8125 9.33057 12.8125Z" fill="#ADE194"/>
<path id="Vector_13" d="M4.57425 6.40625C4.57425 3.14771 7.0071 0.457406 10.1555 0.0526113C9.88543 0.0179375 9.61012 0 9.33057 0C5.79247 0 2.92432 2.86816 2.92432 6.40625C2.92432 9.94434 5.79247 12.8125 9.33057 12.8125C9.61012 12.8125 9.88543 12.7946 10.1555 12.7599C7.0071 12.3551 4.57425 9.66479 4.57425 6.40625Z" fill="#7DCE6F"/>
<g id="Group_3">
<g id="Group_4">
<path id="Vector_14" d="M8.08864 9.58741C7.9075 9.58741 7.73525 9.50805 7.61762 9.36983L5.69262 7.10971C5.47105 6.84954 5.50236 6.45907 5.76245 6.2375C6.02278 6.01584 6.41316 6.04723 6.63466 6.30741L8.07206 7.99505L11.4083 3.79672C11.621 3.52918 12.0101 3.48457 12.2776 3.69726C12.5451 3.90979 12.5897 4.29905 12.3771 4.56659L8.57295 9.35374C8.4578 9.49852 8.28395 9.58428 8.09905 9.58749C8.09569 9.58741 8.09208 9.58741 8.08864 9.58741Z" fill="#F1F6F7"/>
</g>
</g>
<path id="Vector_15" d="M5.125 41H7.13848C7.44807 41 7.69903 40.749 7.69903 40.4395V28.748C7.69903 28.4385 7.44807 28.1875 7.13848 28.1875H4.32422V38.4375L5.125 41Z" fill="#F1F6F7"/>
<path id="Vector_16" d="M0.560547 26.9062H4.56445C4.87404 26.9062 5.125 27.1572 5.125 27.4668V41H0.560547C0.250965 41 0 40.749 0 40.4395V27.4668C0 27.1572 0.250965 26.9062 0.560547 26.9062Z" fill="#9DC6FB"/>
<path id="Vector_17" d="M0 27.4668V40.4395C0 40.749 0.250965 41 0.560547 41H1.64993V26.9062H0.560547C0.250965 26.9062 0 27.1572 0 27.4668Z" fill="#80B4FB"/>
<path id="Vector_18" d="M2.59378 31.3687C2.25209 31.3687 1.9751 31.0917 1.9751 30.75C1.9751 30.4083 2.25209 30.1313 2.59378 30.1313C2.93547 30.1313 3.21246 30.4083 3.21246 30.75C3.21254 31.0917 2.93555 31.3687 2.59378 31.3687Z" fill="#F1F6F7"/>
</g>
</svg>
