<svg width="30" height="30" viewBox="0 0 30 30" fill="none" xmlns="http://www.w3.org/2000/svg">
<g id="material-symbols:person-2-outline-rounded">
<path id="Vector" d="M12.2187 15C11.4687 15 10.8437 14.7188 10.3437 14.1562C9.84375 13.5938 9.64583 12.9375 9.75 12.1875L10.1562 9.125C10.3229 7.9375 10.8646 6.95333 11.7812 6.1725C12.6979 5.39083 13.7708 5 15 5C16.2292 5 17.3021 5.39083 18.2188 6.1725C19.1354 6.95333 19.6771 7.9375 19.8438 9.125L20.25 12.1875C20.3542 12.9375 20.1563 13.5938 19.6562 14.1562C19.1562 14.7188 18.5313 15 17.7812 15H12.2187ZM12.2187 12.5H17.7812L17.375 9.5C17.2917 8.91667 17.0262 8.4375 16.5787 8.0625C16.1304 7.6875 15.6042 7.5 15 7.5C14.3958 7.5 13.87 7.6875 13.4225 8.0625C12.9742 8.4375 12.7083 8.91667 12.625 9.5L12.2187 12.5ZM7.5 25C6.8125 25 6.22417 24.7554 5.735 24.2663C5.245 23.7763 5 23.1875 5 22.5V21.5C5 20.7917 5.1825 20.1404 5.5475 19.5463C5.91167 18.9529 6.39583 18.5 7 18.1875C8.29167 17.5417 9.60417 17.0571 10.9375 16.7338C12.2708 16.4113 13.625 16.25 15 16.25C16.375 16.25 17.7292 16.4113 19.0625 16.7338C20.3958 17.0571 21.7083 17.5417 23 18.1875C23.6042 18.5 24.0883 18.9529 24.4525 19.5463C24.8175 20.1404 25 20.7917 25 21.5V22.5C25 23.1875 24.7554 23.7763 24.2663 24.2663C23.7763 24.7554 23.1875 25 22.5 25H7.5ZM7.5 22.5H22.5V21.5C22.5 21.2708 22.4429 21.0625 22.3288 20.875C22.2138 20.6875 22.0625 20.5417 21.875 20.4375C20.75 19.875 19.6146 19.4529 18.4688 19.1712C17.3229 18.8904 16.1667 18.75 15 18.75C13.8333 18.75 12.6771 18.8904 11.5313 19.1712C10.3854 19.4529 9.25 19.875 8.125 20.4375C7.9375 20.5417 7.78667 20.6875 7.6725 20.875C7.5575 21.0625 7.5 21.2708 7.5 21.5V22.5Z" fill="#818181"/>
</g>
</svg>
