<svg width="101" height="101" viewBox="0 0 101 101" fill="none" xmlns="http://www.w3.org/2000/svg">
<g id="Group">
<path id="Vector" d="M100.734 49.281C100.647 49.0903 98.8126 45.0681 95.9114 41.5081C97.2292 37.1072 97.3852 32.6862 97.3909 32.4783C97.4197 31.6259 97.0788 30.8053 96.4577 30.2244C96.3046 30.08 92.8709 27.066 88.8313 24.8873C88.3632 20.3189 86.8173 16.1752 86.7421 15.9788C86.4417 15.1842 85.8146 14.5571 85.0201 14.2567C84.8236 14.1815 80.6799 12.4383 76.1115 11.9702C73.9328 7.92774 70.9161 4.69147 70.7744 4.5382C70.1907 3.91702 69.3267 3.47772 68.5205 3.60771C68.3124 3.61343 63.8914 3.76947 59.4907 5.08717C55.9305 2.18605 51.9082 0.351125 51.7174 0.26433C51.3302 0.0881758 50.9142 0 50.4981 0C50.0821 0 49.6659 0.0881758 49.2787 0.26433C49.0879 0.350928 45.0657 2.18585 41.5058 5.08698C37.1049 3.76927 32.6838 3.61324 32.4759 3.60752C31.6176 3.48324 30.803 3.91662 30.222 4.538C30.0804 4.69107 27.0637 7.92754 24.8849 11.97C20.3165 12.4381 16.1729 14.1813 15.9764 14.2565C15.1818 14.5569 14.5547 15.184 14.2543 15.9786C14.1791 16.175 12.436 20.3187 11.9678 24.8871C7.92537 27.0658 4.6891 30.0826 4.53583 30.2242C3.91741 30.8079 3.57655 31.6285 3.60535 32.4781C3.61107 32.6862 3.7671 37.1072 5.08481 41.5079C2.18368 45.0679 0.348758 49.0903 0.26216 49.2808C-0.0873868 50.0553 -0.0873868 50.9453 0.26216 51.7196C0.348758 51.9103 2.18368 55.9325 5.08481 59.4925C3.7671 63.8934 3.61107 68.3144 3.60535 68.5223C3.57655 69.3719 3.91741 70.1925 4.53583 70.7762C4.6889 70.9178 7.92537 73.9346 11.9678 76.1133C12.436 80.6817 14.1791 84.8254 14.2543 85.0218C14.5547 85.8164 15.1818 86.4435 15.9794 86.7439C16.1758 86.8191 20.3165 88.365 24.8849 88.8331C27.0637 92.8728 30.0774 96.3064 30.222 96.4594C30.8028 97.0806 31.6293 97.4708 32.4759 97.3927C32.684 97.387 37.1051 97.2309 41.503 95.9132C45.0659 98.8114 49.0881 100.649 49.2789 100.736C49.6643 100.911 50.0815 100.999 50.4983 100.999C50.9155 100.999 51.3327 100.911 51.7178 100.736C51.9086 100.649 55.9307 98.8114 59.4907 95.9132C63.8916 97.2309 68.3126 97.387 68.5205 97.3927C69.3903 97.4649 70.1907 97.0806 70.7744 96.4594C70.9188 96.3064 73.9328 93.0699 76.1115 89.0304C80.6799 88.5623 84.8206 86.8191 85.0171 86.7439C85.8146 86.4435 86.4417 85.8164 86.7421 85.0218C86.8173 84.8254 88.5605 80.6817 89.0286 76.1133C93.0683 73.9346 96.3046 70.9208 96.4577 70.7762C97.0788 70.1955 97.4199 69.3749 97.3909 68.5223C97.3852 68.3142 97.2292 63.8932 95.9114 59.4925C98.8126 55.9325 100.647 51.9101 100.734 51.7196C101.084 50.9453 101.084 50.0553 100.734 49.281Z" fill="#F3F5F9"/>
<path id="Vector_2" d="M51.7173 100.736C51.9081 100.65 55.9302 98.8118 59.4902 95.9136C63.8911 97.2313 68.3121 97.3874 68.52 97.3931C69.3898 97.4653 70.1903 97.081 70.774 96.4598C70.9183 96.3068 73.9323 93.0703 76.1111 89.0308C80.6794 88.5627 84.8202 86.8195 85.0166 86.7443C85.8142 86.4439 86.4412 85.8168 86.7417 85.0222C86.8168 84.8257 88.56 80.6821 89.0281 76.1137C93.0678 73.9349 96.3041 70.9212 96.4572 70.7766C97.0784 70.1959 97.4194 69.3752 97.3904 68.5227C97.3847 68.3146 97.2287 63.8936 95.911 59.4928C98.8121 55.9329 100.647 51.9105 100.734 51.72C101.083 50.9455 101.083 50.0555 100.734 49.2812C100.647 49.0905 98.8121 45.0683 95.911 41.5083C97.2287 37.1074 97.3847 32.6864 97.3904 32.4785C97.4192 31.6261 97.0784 30.8055 96.4572 30.2246C96.3041 30.0802 92.8704 27.0662 88.8309 24.8875C88.3628 20.3191 86.8168 16.1754 86.7417 15.979C86.4412 15.1844 85.8141 14.5573 85.0196 14.2569C84.8231 14.1817 80.6794 12.4385 76.1111 11.9704C73.9323 7.92793 70.9156 4.69166 70.774 4.53839C70.1903 3.91722 69.3263 3.47792 68.52 3.60791C68.3119 3.61363 63.8909 3.76967 59.4902 5.08737C55.9304 2.18605 51.9081 0.351125 51.7173 0.26433C51.3301 0.0881758 50.9141 0 50.498 0V100.999C50.9153 100.999 51.3323 100.911 51.7173 100.736Z" fill="#E1E6F0"/>
<path id="Vector_3" d="M90.4122 56.7995C92.3655 54.722 93.9231 52.0375 94.732 50.5002C93.9229 48.9629 92.3655 46.2786 90.4122 44.2009C89.6378 43.3745 89.4009 42.1839 89.7997 41.1263C90.8111 38.4564 91.2214 35.3762 91.3804 33.6482C90.0453 32.5386 87.3805 30.6518 84.7798 29.4814C83.7483 29.0163 83.0749 28.0049 83.0374 26.872C82.9508 24.0027 82.1533 21.015 81.6388 19.3621C79.9802 18.8478 76.9779 18.0474 74.1259 17.9608C72.9932 17.9233 71.9819 17.2471 71.5166 16.2183C70.3462 13.6149 68.4594 10.9528 67.3498 9.61778C65.6218 9.77677 62.5416 10.1871 59.8716 11.1984C58.8255 11.6001 57.6294 11.3689 56.7971 10.5859C54.7196 8.63266 52.035 7.07508 50.4978 6.26611C48.9605 7.07528 46.2762 8.63266 44.1984 10.5859C43.3691 11.3632 42.17 11.5943 41.1239 11.1984C38.454 10.1871 35.3737 9.77677 33.6457 9.61778C32.5361 10.9528 30.6493 13.6149 29.479 16.2183C29.0138 17.2471 28.0025 17.9233 26.8696 17.9608C24.0002 18.0474 21.0125 18.8449 19.3597 19.3593C18.8454 21.0179 18.0449 24.0202 17.9583 26.8722C17.9208 28.0049 17.2446 29.0163 16.2159 29.4816C13.6124 30.652 10.9504 32.5388 9.61534 33.6484C9.77433 35.3764 10.1846 38.4566 11.196 41.1265C11.5947 42.1841 11.3577 43.3745 10.5835 44.2011C8.63022 46.2786 7.07264 48.9631 6.26367 50.5004C7.07284 52.0377 8.63022 54.722 10.5835 56.7997C11.3579 57.6261 11.5949 58.8167 11.196 59.8743C10.1846 62.5442 9.77433 65.6244 9.61534 67.3524C10.9504 68.462 13.6124 70.3488 16.2159 71.5192C17.2446 71.9843 17.9208 72.9957 17.9583 74.1286C18.0449 76.9979 18.8424 79.9856 19.3569 81.6385C21.0155 82.1528 24.0178 82.9533 26.8728 83.0428C28.0027 83.0775 29.0138 83.7537 29.4792 84.7823C30.6495 87.3829 32.5363 90.0478 33.6459 91.3828C35.3739 91.2238 38.4512 90.8135 41.1213 89.8022C42.1935 89.3992 43.3806 89.6501 44.1929 90.4119C46.2734 92.3652 48.9607 93.9228 50.498 94.7347C52.0352 93.9228 54.7225 92.3681 56.8001 90.4149C57.6236 89.6376 58.8228 89.4065 59.8716 89.8024C62.5416 90.8137 65.6218 91.224 67.3498 91.383C68.4594 90.048 70.3462 87.3831 71.5166 84.7825C71.9817 83.7537 72.9931 83.0775 74.123 83.043C76.975 82.9535 79.9773 82.153 81.6359 81.6387C82.1501 79.9801 82.9506 76.9808 83.0372 74.1288C83.0747 72.9961 83.7481 71.9847 84.7796 71.5194C87.3803 70.349 90.0451 68.4622 91.3802 67.3526C91.2212 65.6246 90.8109 62.5444 89.7995 59.8745C89.4009 58.8165 89.638 57.6259 90.4122 56.7995Z" fill="#A0E65C"/>
<path id="Vector_4" d="M59.8716 89.8022C62.5415 90.8136 65.6218 91.2239 67.3498 91.3829C68.4594 90.0478 70.3462 87.383 71.5165 84.7823C71.9817 83.7536 72.993 83.0774 74.123 83.0429C76.975 82.9533 79.9773 82.1528 81.6359 81.6385C82.1501 79.98 82.9506 76.9806 83.0372 74.1286C83.0747 72.9959 83.7481 71.9846 84.7796 71.5192C87.3803 70.3489 90.0451 68.4621 91.3802 67.3525C91.2212 65.6245 90.8109 62.5442 89.7995 59.8743C89.4009 58.8168 89.6378 57.6263 90.412 56.7998C92.3653 54.7222 93.9229 52.0377 94.7318 50.5004C93.9227 48.9632 92.3653 46.2789 90.412 44.2011C89.6376 43.3748 89.4007 42.1841 89.7995 41.1266C90.8109 38.4567 91.2212 35.3764 91.3802 33.6484C90.0451 32.5388 87.3803 30.652 84.7796 29.4817C83.7481 29.0165 83.0747 28.0052 83.0372 26.8723C82.9506 24.0029 82.1531 21.0152 81.6386 19.3623C79.98 18.8481 76.9777 18.0476 74.1257 17.961C72.993 17.9235 71.9817 17.2473 71.5163 16.2186C70.346 13.6151 68.4592 10.9531 67.3496 9.61803C65.6216 9.77702 62.5414 10.1873 59.8714 11.1987C58.8253 11.6003 57.6291 11.3691 56.7969 10.5862C54.7193 8.6329 52.0348 7.07533 50.4976 6.26636V94.7347C52.0348 93.9228 54.7221 92.3682 56.7997 90.4149C57.6236 89.6375 58.8228 89.4063 59.8716 89.8022Z" fill="#79CC52"/>
<path id="Vector_5" d="M73.5135 38.8119L65.1423 30.4437C63.9865 29.288 62.1139 29.288 60.9582 30.4437L50.498 40.9057L44.5802 46.8245L40.0349 42.2792C38.8791 41.1234 37.0065 41.1234 35.8508 42.2792L27.4825 50.6474C26.3268 51.8032 26.3268 53.6758 27.4825 54.8315L42.488 69.837C43.6438 70.9928 45.5164 70.9928 46.6721 69.837L50.498 66.0111L73.5135 42.9957C74.0684 42.4408 74.3804 41.6896 74.3804 40.9037C74.3804 40.1178 74.0684 39.3668 73.5135 38.8119Z" fill="#F3F5F9"/>
<path id="Vector_6" d="M74.3805 40.9041C74.3805 40.1183 74.0684 39.3669 73.5135 38.8122L65.1423 30.444C63.9866 29.2882 62.114 29.2882 60.9582 30.444L50.498 40.9059V66.0116L73.5135 42.9961C74.0684 42.4414 74.3805 41.69 74.3805 40.9041Z" fill="#E1E6F0"/>
</g>
</svg>
