<svg width="21" height="23" viewBox="0 0 21 23" fill="none" xmlns="http://www.w3.org/2000/svg">
<path id="Vector" d="M3 19.7111H6.75V12.2031H14.25V19.7111H18V8.44903L10.5 2.81799L3 8.44903V19.7111ZM3 22.2138C2.3125 22.2138 1.72417 21.969 1.235 21.4793C0.745 20.9887 0.5 20.3994 0.5 19.7111V8.44903C0.5 8.05278 0.58875 7.67737 0.76625 7.32283C0.942916 6.96828 1.1875 6.6763 1.5 6.44689L9 0.815845C9.22917 0.648999 9.46875 0.523865 9.71875 0.440442C9.96875 0.357019 10.2292 0.315308 10.5 0.315308C10.7708 0.315308 11.0312 0.357019 11.2812 0.440442C11.5312 0.523865 11.7708 0.648999 12 0.815845L19.5 6.44689C19.8125 6.6763 20.0575 6.96828 20.235 7.32283C20.4117 7.67737 20.5 8.05278 20.5 8.44903V19.7111C20.5 20.3994 20.2554 20.9887 19.7663 21.4793C19.2763 21.969 18.6875 22.2138 18 22.2138H11.75V14.7057H9.25V22.2138H3Z" fill="#818181"/>
</svg>
