<svg width="36" height="36" viewBox="0 0 36 36" fill="none" xmlns="http://www.w3.org/2000/svg">
<g id="ic:round-favorite-border">
<rect x="0.5" y="0.5" width="35" height="35" rx="11.5" stroke="#4D8C30"/>
<path id="Vector" d="M25.6573 9.99027C23.0183 8.19097 19.7596 9.03064 18.0003 11.0899C16.241 9.03064 12.9822 8.18097 10.3432 9.99027C8.94376 10.9499 8.06409 12.5693 8.00412 14.2786C7.86417 18.1571 11.3029 21.2659 16.5508 26.0341L16.6508 26.1241C17.4105 26.8138 18.5801 26.8138 19.3398 26.1141L19.4497 26.0141C24.6977 21.2559 28.1264 18.1471 27.9964 14.2686C27.9365 12.5693 27.0568 10.9499 25.6573 9.99027ZM18.1002 24.5447L18.0003 24.6446L17.9003 24.5447C13.1421 20.2363 10.0033 17.3874 10.0033 14.4985C10.0033 12.4993 11.5028 10.9999 13.502 10.9999C15.0414 10.9999 16.5408 11.9895 17.0706 13.359H18.9399C19.4597 11.9895 20.9591 10.9999 22.4985 10.9999C24.4978 10.9999 25.9972 12.4993 25.9972 14.4985C25.9972 17.3874 22.8584 20.2363 18.1002 24.5447Z" fill="#4D8C30"/>
</g>
</svg>
