<svg width="31" height="30" viewBox="0 0 31 30" fill="none" xmlns="http://www.w3.org/2000/svg">
<g id="mdi:shop">
<g id="Vector">
<mask id="path-1-inside-1_522_389" fill="white">
<path d="M15.5 22.5H8V17.5H15.5M26.75 17.5V15L25.5 8.75H5.5L4.25 15V17.5H5.5V25H18V17.5H23V25H25.5V17.5M25.5 5H5.5V7.5H25.5V5Z"/>
</mask>
<path d="M8 22.5H6V24.5H8V22.5ZM8 17.5V15.5H6V17.5H8ZM26.75 15H28.75V14.802L28.7112 14.6078L26.75 15ZM25.5 8.75L27.4612 8.35777L27.1396 6.75H25.5V8.75ZM5.5 8.75V6.75H3.86039L3.53884 8.35777L5.5 8.75ZM4.25 15L2.28884 14.6078L2.25 14.802V15H4.25ZM4.25 17.5H2.25V19.5H4.25V17.5ZM5.5 17.5H7.5V15.5H5.5V17.5ZM5.5 25H3.5V27H5.5V25ZM18 25V27H20V25H18ZM18 17.5V15.5H16V17.5H18ZM23 17.5H25V15.5H23V17.5ZM23 25H21V27H23V25ZM25.5 25V27H27.5V25H25.5ZM25.5 5H27.5V3H25.5V5ZM5.5 5V3H3.5V5H5.5ZM5.5 7.5H3.5V9.5H5.5V7.5ZM25.5 7.5V9.5H27.5V7.5H25.5ZM15.5 20.5H8V24.5H15.5V20.5ZM10 22.5V17.5H6V22.5H10ZM8 19.5H15.5V15.5H8V19.5ZM28.75 17.5V15H24.75V17.5H28.75ZM28.7112 14.6078L27.4612 8.35777L23.5388 9.14223L24.7888 15.3922L28.7112 14.6078ZM25.5 6.75H5.5V10.75H25.5V6.75ZM3.53884 8.35777L2.28884 14.6078L6.21116 15.3922L7.46116 9.14223L3.53884 8.35777ZM2.25 15V17.5H6.25V15H2.25ZM4.25 19.5H5.5V15.5H4.25V19.5ZM3.5 17.5V25H7.5V17.5H3.5ZM5.5 27H18V23H5.5V27ZM20 25V17.5H16V25H20ZM18 19.5H23V15.5H18V19.5ZM21 17.5V25H25V17.5H21ZM23 27H25.5V23H23V27ZM27.5 25V17.5H23.5V25H27.5ZM25.5 3H5.5V7H25.5V3ZM3.5 5V7.5H7.5V5H3.5ZM5.5 9.5H25.5V5.5H5.5V9.5ZM27.5 7.5V5H23.5V7.5H27.5Z" fill="#818181" mask="url(#path-1-inside-1_522_389)"/>
</g>
</g>
</svg>
