<svg width="31" height="30" viewBox="0 0 31 30" fill="none" xmlns="http://www.w3.org/2000/svg">
<g id="mdi:graph-timeline-variant">
<path id="Vector" d="M4.25 17.5L4.875 17.5875L10.5875 11.875C10.4729 11.4553 10.4727 11.0125 10.587 10.5926C10.7013 10.1728 10.9259 9.79122 11.2375 9.4875C12.2125 8.5 13.7875 8.5 14.7625 9.4875C15.425 10.1375 15.6375 11.0625 15.4125 11.875L18.625 15.0875L19.25 15C19.475 15 19.6875 15 19.875 15.0875L24.3375 10.625C24.25 10.4375 24.25 10.225 24.25 10C24.25 9.33696 24.5134 8.70107 24.9822 8.23223C25.4511 7.76339 26.087 7.5 26.75 7.5C27.413 7.5 28.0489 7.76339 28.5178 8.23223C28.9866 8.70107 29.25 9.33696 29.25 10C29.25 10.663 28.9866 11.2989 28.5178 11.7678C28.0489 12.2366 27.413 12.5 26.75 12.5C26.525 12.5 26.3125 12.5 26.125 12.4125L21.6625 16.875C21.75 17.0625 21.75 17.275 21.75 17.5C21.75 18.163 21.4866 18.7989 21.0178 19.2678C20.5489 19.7366 19.913 20 19.25 20C18.587 20 17.9511 19.7366 17.4822 19.2678C17.0134 18.7989 16.75 18.163 16.75 17.5L16.8375 16.875L13.625 13.6625C13.225 13.75 12.775 13.75 12.375 13.6625L6.6625 19.375L6.75 20C6.75 20.663 6.48661 21.2989 6.01777 21.7678C5.54893 22.2366 4.91304 22.5 4.25 22.5C3.58696 22.5 2.95107 22.2366 2.48223 21.7678C2.01339 21.2989 1.75 20.663 1.75 20C1.75 19.337 2.01339 18.7011 2.48223 18.2322C2.95107 17.7634 3.58696 17.5 4.25 17.5Z" fill="#818181"/>
</g>
</svg>
