<svg width="17" height="16" viewBox="0 0 17 16" fill="none" xmlns="http://www.w3.org/2000/svg">
<rect width="17" height="16" fill="#F5F5F5"/>
<g clip-path="url(#clip0_0_1)">
<rect width="430" height="1688" transform="translate(-31 -1113)" fill="white"/>
<rect x="-19" y="-172.5" width="407" height="212" rx="7.5" fill="white" stroke="#F2F2F2"/>
<rect x="-9" y="-9.5" width="64" height="35" rx="11.5" stroke="#E43937"/>
<path d="M13.8 14C12.3667 14 10.9696 13.6804 9.60867 13.0413C8.24733 12.4027 7.04178 11.5582 5.992 10.508C4.94178 9.45822 4.09733 8.25267 3.45867 6.89133C2.81956 5.53044 2.5 4.13333 2.5 2.7C2.5 2.5 2.56667 2.33333 2.7 2.2C2.83333 2.06667 3 2 3.2 2H5.9C6.05556 2 6.19444 2.05 6.31667 2.15C6.43889 2.25 6.51111 2.37778 6.53333 2.53333L6.96667 4.86667C6.98889 5.02222 6.98622 5.16378 6.95867 5.29133C6.93067 5.41933 6.86667 5.53333 6.76667 5.63333L5.15 7.26667C5.61667 8.06667 6.20289 8.81667 6.90867 9.51667C7.614 10.2167 8.38889 10.8222 9.23333 11.3333L10.8 9.76667C10.9 9.66667 11.0307 9.59156 11.192 9.54133C11.3529 9.49156 11.5111 9.47778 11.6667 9.5L13.9667 9.96667C14.1222 10 14.25 10.0749 14.35 10.1913C14.45 10.3082 14.5 10.4444 14.5 10.6V13.3C14.5 13.5 14.4333 13.6667 14.3 13.8C14.1667 13.9333 14 14 13.8 14ZM4.51667 6L5.61667 4.9L5.33333 3.33333H3.85C3.90556 3.78889 3.98333 4.23889 4.08333 4.68333C4.18333 5.12778 4.32778 5.56667 4.51667 6ZM10.4833 11.9667C10.9167 12.1556 11.3584 12.3056 11.8087 12.4167C12.2584 12.5278 12.7111 12.6 13.1667 12.6333V11.1667L11.6 10.85L10.4833 11.9667Z" fill="#EE4146"/>
</g>
<defs>
<clipPath id="clip0_0_1">
<rect width="430" height="1688" fill="white" transform="translate(-31 -1113)"/>
</clipPath>
</defs>
</svg>
