<svg width="17" height="16" viewBox="0 0 17 16" fill="none" xmlns="http://www.w3.org/2000/svg">
<g id="mdi:invoice-outline">
<path id="Vector" d="M13.8335 2.33325L12.8335 1.33325L11.8335 2.33325L10.8335 1.33325L9.8335 2.33325L8.8335 1.33325L7.8335 2.33325L6.8335 1.33325L5.8335 2.33325L4.8335 1.33325L3.8335 2.33325L2.8335 1.33325V14.6666L3.8335 13.6666L4.8335 14.6666L5.8335 13.6666L6.8335 14.6666L7.8335 13.6666L8.8335 14.6666L9.8335 13.6666L10.8335 14.6666L11.8335 13.6666L12.8335 14.6666L13.8335 13.6666L14.8335 14.6666V1.33325L13.8335 2.33325ZM13.5002 12.6666H4.16683V3.33325H13.5002V12.6666ZM4.8335 9.99992H12.8335V11.3333H4.8335M4.8335 7.33325H12.8335V8.66658H4.8335M4.8335 4.66658H12.8335V5.99992H4.8335V4.66658Z" fill="white"/>
</g>
</svg>
