<svg width="36" height="36" viewBox="0 0 36 36" fill="none" xmlns="http://www.w3.org/2000/svg">
<g id="Component 1">
<rect x="0.5" y="0.5" width="35" height="35" rx="11.5" fill="white"/>
<rect x="0.5" y="0.5" width="35" height="35" rx="11.5" stroke="#4D8C30"/>
<path id="Vector" d="M12.3125 26.9156C12 27.0529 11.7031 27.0227 11.4219 26.825C11.1406 26.628 11 26.3407 11 25.9632V11.0593C11 10.493 11.1837 10.008 11.5512 9.60439C11.9181 9.20146 12.3594 9 12.875 9H18.5V11.0593H12.875V24.393L17.5625 22.1793L22.25 24.393V17.2371H24.125V25.9632C24.125 26.3407 23.9844 26.628 23.7031 26.825C23.4219 27.0227 23.125 27.0529 22.8125 26.9156L17.5625 24.4445L12.3125 26.9156ZM12.875 11.0593H18.5H17.5625H12.875ZM23.1875 15.1778C22.9219 15.1778 22.6994 15.0789 22.52 14.8813C22.34 14.6843 22.25 14.4399 22.25 14.1482V13.1185H21.3125C21.0469 13.1185 20.8244 13.02 20.645 12.823C20.465 12.6253 20.375 12.3806 20.375 12.0889C20.375 11.7972 20.465 11.5525 20.645 11.3548C20.8244 11.1578 21.0469 11.0593 21.3125 11.0593H22.25V10.0296C22.25 9.7379 22.34 9.49319 22.52 9.2955C22.6994 9.0985 22.9219 9 23.1875 9C23.4531 9 23.6756 9.0985 23.855 9.2955C24.035 9.49319 24.125 9.7379 24.125 10.0296V11.0593H25.0625C25.3281 11.0593 25.5506 11.1578 25.73 11.3548C25.91 11.5525 26 11.7972 26 12.0889C26 12.3806 25.91 12.6253 25.73 12.823C25.5506 13.02 25.3281 13.1185 25.0625 13.1185H24.125V14.1482C24.125 14.4399 24.035 14.6843 23.855 14.8813C23.6756 15.0789 23.4531 15.1778 23.1875 15.1778Z" fill="#4D8C30"/>
</g>
</svg>
