<svg width="37" height="37" viewBox="0 0 37 37" fill="none" xmlns="http://www.w3.org/2000/svg">
<path d="M29.1189 19.8976C27.963 19.5737 26.5254 19.5737 25.3694 19.8976C24.6731 20.091 23.9922 19.5677 23.9922 18.8539V5.56445C23.9922 4.9653 24.477 4.48047 25.0762 4.48047H31.5801C32.1792 4.48047 32.6641 4.9653 32.6641 5.56445C32.6641 6.16361 32.1792 6.64844 31.5801 6.64844C30.982 6.64844 30.4961 7.13435 30.4961 7.73242V18.8538C30.4962 19.5603 29.8244 20.0914 29.1189 19.8976Z" fill="#BEBCDD"/>
<path d="M21.4992 34.832H5.41992C4.82077 34.832 4.33594 34.3472 4.33594 33.748C4.33594 33.1489 4.82077 32.6641 5.41992 32.6641C6.01799 32.6641 6.50391 32.1781 6.50391 31.5801V29.4121C6.50391 28.813 6.98874 28.3281 7.58789 28.3281H18.8538C19.3503 28.3281 19.7832 28.6647 19.905 29.1454C20.2787 30.6221 21.0779 31.9326 22.2159 32.9351C22.5547 33.2325 22.6721 33.7089 22.5133 34.1313C22.3535 34.5526 21.9502 34.832 21.4992 34.832Z" fill="#E2DFF4"/>
<path d="M19.905 29.1454C19.7832 28.6648 19.3503 28.3281 18.8538 28.3281H14.2363V34.832H21.4992C21.9502 34.832 22.3535 34.5526 22.5133 34.1313C22.6721 33.7089 22.5546 33.2325 22.2159 32.9351C21.0779 31.9326 20.2787 30.6221 19.905 29.1454Z" fill="#BEBCDD"/>
<path d="M18.8538 30.4961H1.08398C0.48483 30.4961 0 30.0113 0 29.4121C0 28.813 0.48483 28.3281 1.08398 28.3281C1.68205 28.3281 2.16797 27.8422 2.16797 27.2441V3.25195C2.16797 1.45875 3.62672 0 5.41992 0H27.2441C27.8433 0 28.3281 0.48483 28.3281 1.08398C28.3281 1.68314 27.8433 2.16797 27.2441 2.16797C26.6461 2.16797 26.1602 2.65388 26.1602 3.25195V18.8538C26.1602 19.3492 25.8235 19.7822 25.3429 19.9039C21.9946 20.7561 19.6562 23.7741 19.6562 27.2441C19.6562 27.928 19.7357 28.5409 19.8976 29.1189C20.0914 29.8071 19.5733 30.4961 18.8538 30.4961Z" fill="#F3F5F9"/>
<path d="M27.2441 0H14.2363V30.4961H18.8538C19.5732 30.4961 20.0913 29.8071 19.8975 29.1189C19.7357 28.5409 19.6562 27.928 19.6562 27.2441C19.6562 23.7741 21.9946 20.7561 25.3429 19.904C25.8235 19.7822 26.1602 19.3493 26.1602 18.8539V3.25195C26.1602 2.65388 26.6461 2.16797 27.2441 2.16797C27.8433 2.16797 28.3281 1.68314 28.3281 1.08398C28.3281 0.48483 27.8433 0 27.2441 0Z" fill="#E2DFF4"/>
<path d="M21.5077 21.8242H7.58789C6.98874 21.8242 6.50391 21.3394 6.50391 20.7402C6.50391 20.1411 6.98874 19.6562 7.58789 19.6562H21.5077C22.1068 19.6562 22.5917 20.1411 22.5917 20.7402C22.5917 21.3394 22.1068 21.8242 21.5077 21.8242Z" fill="#E2DFF4"/>
<path d="M18.8454 26.1602H7.58789C6.98874 26.1602 6.50391 25.6753 6.50391 25.0762C6.50391 24.477 6.98874 23.9922 7.58789 23.9922H18.8454C19.4445 23.9922 19.9293 24.477 19.9293 25.0762C19.9293 25.6753 19.4445 26.1602 18.8454 26.1602Z" fill="#E2DFF4"/>
<path d="M14.2363 10.9844C12.4431 10.9844 10.9844 9.52562 10.9844 7.73242C10.9844 5.93922 12.4431 4.48047 14.2363 4.48047C16.0295 4.48047 17.4883 5.93922 17.4883 7.73242C17.4883 9.52562 16.0295 10.9844 14.2363 10.9844Z" fill="#FFD9B3"/>
<path d="M17.4883 17.4883H10.9844C10.3852 17.4883 9.90039 17.0035 9.90039 16.4043V15.3203C9.90039 12.929 11.845 10.9844 14.2363 10.9844C16.6277 10.9844 18.5723 12.929 18.5723 15.3203V16.4043C18.5723 17.0035 18.0874 17.4883 17.4883 17.4883Z" fill="#80A3FF"/>
<path d="M17.4883 17.4883C18.0874 17.4883 18.5723 17.0035 18.5723 16.4043V15.3203C18.5723 12.929 16.6266 10.9844 14.2363 10.9844V17.4883H17.4883Z" fill="#5C75E6"/>
<path d="M17.4883 7.73242C17.4883 5.93922 16.0295 4.48047 14.2363 4.48047V10.9844C16.0295 10.9844 17.4883 9.52562 17.4883 7.73242Z" fill="#FFBB99"/>
<path d="M18.8454 23.9922H14.2363V26.1602H18.8454C19.4445 26.1602 19.9293 25.6753 19.9293 25.0762C19.9293 24.477 19.4445 23.9922 18.8454 23.9922Z" fill="#BEBCDD"/>
<path d="M21.5077 19.6562H14.2363V21.8242H21.5077C22.1068 21.8242 22.5917 21.3394 22.5917 20.7402C22.5917 20.1411 22.1068 19.6562 21.5077 19.6562Z" fill="#BEBCDD"/>
<path d="M27.2441 37C32.6322 37 37 32.6322 37 27.2441C37 21.8561 32.6322 17.4883 27.2441 17.4883C21.8561 17.4883 17.4883 21.8561 17.4883 27.2441C17.4883 32.6322 21.8561 37 27.2441 37Z" fill="#80ECC6"/>
<path d="M37 27.2441C37 21.8561 32.6322 17.4883 27.2441 17.4883V37C32.6322 37 37 32.6322 37 27.2441Z" fill="#4FC6B9"/>
<path d="M31.2625 24.3097C30.8391 23.8863 30.1531 23.8863 29.7297 24.3097L26.1602 27.8792L24.7586 26.4776C24.3352 26.0542 23.6492 26.0542 23.2258 26.4776C22.8024 26.901 22.8024 27.5871 23.2258 28.0105L25.3937 30.1784C25.6055 30.3902 25.8828 30.496 26.1601 30.496C26.4374 30.496 26.7148 30.3902 26.9265 30.1784L31.2624 25.8425C31.686 25.4191 31.686 24.7331 31.2625 24.3097Z" fill="#F3F5F9"/>
<path d="M29.7297 24.3098L27.2441 26.7953V29.8609L31.2625 25.8426C31.6859 25.4192 31.6859 24.7332 31.2625 24.3098C30.8391 23.8864 30.1531 23.8863 29.7297 24.3098Z" fill="#E2DFF4"/>
</svg>
